<svg class="norse" version="1.0" xmlns="http://www.w3.org/2000/svg"
 width="500px" height="500px" preserveAspectRatio="xMidYMid meet">

<g transform="translate(0.000000,770.000000) scale(0.100000,-0.100000)"
fill="#000000" stroke="none">
<path d="M2679 7607 c-41 -32 -52 -109 -21 -148 14 -16 28 -22 55 -21 32 1 37
-2 37 -21 -1 -58 -71 -320 -89 -331 -6 -4 -50 27 -113 79 -71 58 -310 168
-463 213 -328 96 -703 52 -1024 -119 -135 -72 -414 -271 -458 -326 -7 -9 -44
-49 -83 -89 -82 -84 -72 -84 -173 -6 -57 43 -99 95 -112 139 -5 18 -3 22 9 17
27 -10 84 6 116 32 95 80 -62 219 -206 183 -48 -12 -99 -61 -110 -105 -15 -58
39 -212 98 -278 22 -26 39 -48 37 -49 -2 -2 -16 -11 -32 -20 -23 -15 -27 -24
-27 -61 0 -50 32 -90 80 -99 38 -8 116 16 148 45 28 26 27 23 -10 -49 -57
-107 -89 -205 -108 -332 -24 -155 -26 -380 -5 -524 27 -176 95 -421 153 -547
51 -111 260 -427 329 -498 32 -33 -10 -101 -72 -116 -14 -4 -33 -15 -43 -26
-12 -14 -29 -20 -60 -20 -58 0 -128 -18 -145 -39 -8 -9 -17 -29 -21 -44 -6
-24 -1 -34 28 -63 19 -19 44 -34 56 -34 13 0 39 -10 59 -22 23 -15 53 -23 86
-24 27 -1 90 -9 138 -18 49 -10 91 -15 95 -12 3 3 -13 28 -36 55 l-42 49 25
24 c13 12 50 37 81 55 l57 32 59 -45 c32 -25 58 -51 58 -57 0 -10 -57 -103
-77 -126 -2 -3 -24 -4 -49 -2 -48 2 -114 -14 -114 -29 0 -4 25 -24 55 -45 30
-20 55 -42 55 -49 0 -33 104 -93 141 -81 15 5 19 16 19 49 0 43 46 152 74 175
10 8 34 -7 102 -67 50 -42 125 -104 167 -137 42 -33 77 -63 77 -68 0 -15 -85
-46 -143 -53 -59 -7 -67 -3 -42 22 18 18 19 63 2 85 -36 47 -101 52 -142 9
-52 -55 -26 -128 63 -172 39 -19 63 -23 142 -23 87 0 100 3 156 31 l62 32 58
-41 c33 -22 77 -55 99 -73 38 -31 40 -34 37 -83 -2 -28 -8 -51 -13 -51 -38 0
-124 70 -162 132 l-17 28 -108 -55 c-161 -81 -258 -94 -338 -44 l-34 21 0 -34
c0 -43 32 -94 74 -119 19 -11 37 -31 40 -44 7 -28 52 -55 93 -55 38 0 109 23
171 54 28 14 55 26 59 26 4 0 9 -17 10 -38 8 -108 163 -110 163 -2 0 35 0 36
39 32 37 -4 41 -7 71 -69 22 -43 45 -74 72 -94 49 -35 157 -69 219 -69 l45 0
33 -67 c31 -63 32 -68 15 -80 -26 -19 -29 -18 -97 31 -137 96 -293 145 -504
155 -100 5 -136 10 -150 23 -67 59 -206 85 -288 54 -24 -10 -56 -31 -69 -47
-30 -35 -50 -102 -41 -136 4 -19 -3 -34 -38 -73 -98 -109 -148 -220 -154 -345
-7 -113 19 -219 79 -319 37 -63 40 -72 29 -101 -15 -43 -14 -110 3 -144 43
-82 128 -114 243 -91 59 11 66 11 85 -6 11 -11 24 -29 29 -41 5 -13 20 -25 36
-29 30 -7 94 -64 145 -127 l31 -38 -56 -50 c-64 -57 -95 -128 -83 -191 7 -38
65 -113 95 -123 15 -5 20 -19 24 -78 3 -40 8 -82 12 -95 7 -21 5 -22 -43 -22
-43 0 -58 6 -98 36 -38 29 -51 34 -63 25 -66 -47 -173 -102 -218 -112 -51 -12
-108 -7 -181 16 -19 6 -22 4 -22 -22 0 -38 25 -72 66 -89 19 -8 34 -20 34 -28
0 -24 36 -46 76 -46 55 0 102 15 157 50 46 29 49 29 78 15 45 -24 109 4 109
47 0 15 8 18 54 18 30 0 67 5 81 10 22 8 32 6 55 -12 16 -13 29 -26 29 -29 1
-7 -54 -31 -129 -56 -25 -8 -50 -19 -56 -24 -16 -13 -8 -164 16 -314 10 -66
24 -174 30 -240 13 -141 44 -282 75 -345 43 -84 144 -160 212 -160 90 1 174
46 199 106 30 72 5 163 -52 184 -43 17 -92 12 -115 -11 -18 -18 -21 -30 -17
-75 l5 -53 -26 14 c-58 30 -101 103 -127 212 -12 51 -15 103 -12 208 5 136 6
143 46 246 33 83 89 179 124 214 2 2 28 -3 58 -11 30 -8 74 -14 98 -14 33 0
48 -5 63 -23 26 -31 24 -36 -21 -43 -22 -4 -40 -9 -40 -13 0 -3 -9 -55 -20
-116 -37 -204 0 -317 104 -317 62 0 107 42 86 81 -12 24 -62 36 -89 21 -19 -9
-21 -8 -21 14 0 95 170 400 229 412 14 3 44 9 66 14 21 5 41 8 42 6 1 -1 -4
-12 -13 -24 -19 -28 -58 -48 -108 -56 -22 -4 -40 -8 -41 -9 0 -1 -9 -20 -19
-42 -10 -22 -21 -69 -23 -105 -5 -60 -3 -67 22 -90 46 -43 165 -25 165 26 0
21 -37 26 -64 9 -17 -12 -26 -13 -31 -5 -5 7 19 39 57 79 76 78 112 130 137
197 18 48 19 49 97 76 44 15 97 28 119 28 39 0 39 0 17 -16 -29 -20 -28 -38 4
-63 28 -22 71 -20 112 6 19 11 23 21 20 51 -3 33 -8 40 -48 60 -60 30 -146 29
-246 -2 l-76 -25 -35 34 c-19 18 -48 39 -64 45 -24 10 -29 18 -25 35 14 54 18
163 7 200 -8 30 -8 43 2 56 83 112 122 176 163 268 l49 109 70 6 c126 12 217
49 262 106 18 22 16 54 -4 73 -51 44 -142 8 -130 -52 6 -26 3 -28 -44 -39 -61
-14 -129 -16 -129 -3 0 5 7 43 16 83 14 66 22 323 10 335 -2 3 14 43 35 89 61
131 83 222 83 341 1 65 5 103 12 103 15 0 69 -60 88 -97 18 -36 21 -85 6 -113
-5 -10 -25 -27 -45 -39 -39 -23 -45 -45 -15 -61 14 -8 26 -8 41 0 11 7 22 10
24 8 2 -2 -4 -43 -12 -92 -15 -84 -14 -89 4 -114 29 -39 48 -48 80 -36 35 12
46 54 14 54 -41 0 -29 62 25 134 48 64 59 92 51 134 -13 64 -12 67 10 70 29 4
46 27 38 52 -5 15 -15 20 -41 20 -20 0 -44 -5 -55 -11 -17 -9 -22 -5 -35 27
-25 61 -55 93 -134 146 l-75 50 -36 103 c-20 57 -48 124 -63 151 -18 32 -23
51 -16 58 12 12 11 14 53 -70 37 -73 126 -173 180 -200 16 -9 53 -18 83 -21
51 -5 55 -4 89 30 46 46 46 78 1 123 -28 28 -41 34 -78 34 -47 0 -68 -13 -68
-42 0 -10 -4 -18 -9 -18 -18 0 -87 90 -126 164 -39 75 -39 77 -23 104 64 104
94 164 110 221 10 36 26 72 35 78 69 50 93 96 93 181 0 48 -7 73 -35 129 -31
61 -33 73 -24 104 5 19 12 88 16 154 5 108 3 129 -20 215 -14 52 -44 135 -66
183 -23 49 -41 91 -41 93 0 2 14 4 30 4 20 0 40 9 57 26 21 21 25 32 20 65 -3
22 -17 55 -30 73 l-25 33 22 39 c32 57 120 285 144 374 55 202 72 319 72 490
0 177 -17 305 -66 490 -40 148 -106 273 -197 367 -38 40 -39 43 -27 73 11 27
17 30 39 25 48 -13 56 -12 84 4 64 37 55 150 -13 168 -36 10 -35 4 -20 95 20
118 0 217 -57 273 -18 18 -92 19 -114 2z m82 -17 c51 -28 79 -162 60 -282 -6
-37 -14 -74 -17 -82 -5 -13 2 -16 34 -16 48 0 64 -19 51 -63 -12 -42 -28 -57
-60 -57 -21 0 -32 7 -43 28 l-14 27 -7 -30 c-9 -35 -65 -147 -114 -225 -49
-79 -161 -217 -290 -355 -61 -66 -111 -123 -111 -127 0 -4 15 -14 33 -22 87
-36 83 -170 -6 -254 l-25 -23 -6 25 c-4 18 1 36 19 62 29 43 33 99 8 126 -37
41 -110 12 -198 -80 -60 -62 -66 -66 -81 -50 -16 16 -11 23 71 113 49 53 96
102 105 108 20 14 185 195 288 316 75 88 162 208 195 271 67 128 117 320 117
450 0 50 -22 90 -48 90 -15 -1 -14 -3 3 -16 15 -11 17 -18 9 -32 -16 -26 -51
-27 -64 -2 -17 31 -3 78 28 95 33 17 38 18 63 5z m-876 -230 c150 -18 268 -54
420 -129 119 -58 325 -192 325 -210 -1 -20 -21 -35 -33 -26 -8 6 -49 36 -92
69 -93 70 -279 164 -395 200 -115 35 -199 46 -365 46 -151 0 -263 -15 -391
-54 -228 -68 -548 -267 -729 -453 -77 -79 -81 -81 -105 -68 l-25 13 113 111
c106 102 202 174 417 309 63 39 189 97 277 128 68 23 244 61 308 66 104 9 195
8 275 -2z m94 -96 c92 -17 222 -61 335 -114 125 -57 276 -165 276 -197 0 -16
-145 -216 -183 -251 l-25 -24 -64 49 c-212 165 -423 215 -698 168 -244 -42
-411 -131 -572 -304 l-74 -80 -105 50 c-184 89 -273 137 -277 149 -5 15 150
168 236 233 134 102 348 220 492 271 173 62 475 84 659 50z m-1715 -95 c54
-15 86 -50 86 -93 0 -38 -20 -56 -62 -56 -30 0 -48 17 -48 47 0 17 6 23 22 23
16 0 19 3 11 11 -8 8 -21 8 -47 -1 -98 -32 -43 -186 106 -295 31 -24 217 -122
412 -219 539 -267 703 -366 861 -521 103 -100 110 -112 83 -145 l-20 -25 -16
25 c-39 62 -221 223 -342 304 -73 48 -426 231 -595 308 -60 27 -172 81 -247
119 -76 38 -139 69 -141 69 -2 0 -2 -11 0 -24 7 -34 -31 -66 -79 -66 -42 0
-78 27 -78 59 0 25 37 51 72 51 16 0 28 2 28 4 0 3 -26 31 -58 63 -73 74 -122
168 -122 235 0 109 66 157 174 127z m2565 -333 c79 -115 119 -224 158 -435 40
-213 38 -382 -6 -584 -50 -235 -178 -577 -215 -577 -28 0 -27 20 4 87 120 259
202 588 201 803 -1 291 -93 593 -223 736 -43 47 -48 56 -38 75 l12 21 29 -28
c16 -15 51 -60 78 -98z m-836 25 c49 -12 109 -31 135 -42 95 -44 234 -151 225
-175 -8 -22 -18 -18 -95 42 -216 167 -447 202 -743 112 -172 -52 -266 -110
-391 -240 -64 -67 -85 -83 -98 -76 -9 5 -16 14 -16 20 0 20 156 170 225 216
86 56 202 105 320 133 185 44 285 46 438 10z m737 -18 c126 -143 206 -390 217
-668 5 -140 3 -161 -26 -312 -17 -90 -44 -202 -60 -250 -35 -107 -129 -331
-142 -339 -6 -3 -15 -1 -22 4 -28 22 -168 55 -250 60 -85 4 -88 5 -103 34 -15
29 -14 30 26 74 49 53 119 161 149 228 33 75 57 186 76 346 15 123 16 158 6
240 -20 152 -50 233 -112 305 -27 31 -30 37 -18 52 27 34 48 59 94 113 26 30
61 79 78 108 17 28 35 52 38 52 4 0 26 -21 49 -47z m-705 -86 c100 -33 281
-145 273 -167 -6 -15 -84 -106 -135 -157 l-52 -52 -51 34 c-29 19 -56 35 -61
35 -5 0 -9 24 -9 53 -1 130 -112 247 -234 247 -86 0 -154 -48 -163 -117 -4
-31 -1 -42 19 -59 57 -52 147 -26 148 44 0 20 4 22 23 17 39 -12 87 -55 93
-83 14 -69 16 -65 -29 -58 -23 3 -87 6 -142 7 -160 2 -287 -38 -374 -116 -21
-19 -43 -35 -48 -35 -5 0 -45 20 -88 45 -43 24 -84 46 -89 48 -23 8 69 112
163 186 66 52 238 119 396 155 11 3 79 3 150 2 110 -2 143 -7 210 -29z m-179
-58 c45 -21 79 -60 107 -121 21 -45 23 -108 3 -108 -32 0 -46 13 -46 42 0 91
-123 180 -204 146 l-31 -13 30 -5 c34 -6 43 -30 20 -54 -23 -22 -54 -20 -82 6
-27 26 -29 40 -7 74 37 56 132 71 210 33z m-1376 -91 c0 -6 -16 -42 -35 -82
-50 -101 -81 -236 -95 -413 -17 -204 -4 -340 55 -568 85 -330 105 -376 257
-601 75 -110 88 -135 83 -157 -4 -15 -10 -27 -14 -27 -21 2 -214 288 -276 411
-40 79 -104 291 -152 504 -26 115 -25 493 1 615 29 140 44 182 91 262 37 63
48 75 65 71 11 -3 20 -10 20 -15z m433 -197 c4 -4 1 -21 -7 -37 -82 -163 -132
-431 -122 -659 3 -77 12 -167 19 -200 22 -98 96 -282 153 -381 58 -99 65 -124
36 -124 -29 0 -132 -71 -180 -124 -24 -26 -45 -46 -47 -44 -13 13 -100 136
-138 195 -65 102 -79 131 -125 268 -106 318 -136 484 -129 720 7 245 44 399
129 542 l18 31 193 -90 c105 -49 196 -93 200 -97z m1579 111 c52 -70 65 -99
84 -192 40 -197 -9 -527 -106 -720 -32 -64 -128 -190 -145 -190 -31 0 -24 23
27 88 62 80 71 93 98 151 52 113 94 342 94 516 -1 140 -20 209 -85 308 -39 58
-44 87 -16 87 7 0 29 -22 49 -48z m-67 -59 c60 -83 70 -127 69 -313 0 -173
-18 -285 -63 -415 -40 -113 -132 -240 -196 -271 -19 -9 -37 -23 -40 -32 -3
-10 -31 -34 -62 -54 l-58 -37 -11 22 c-6 12 -15 37 -19 55 -6 27 -2 38 22 65
16 18 40 51 53 73 13 21 27 41 31 44 4 3 27 46 52 95 57 116 72 180 64 290
l-6 86 39 35 c58 53 83 112 78 185 -4 52 -9 64 -40 97 l-37 37 37 42 c20 24
40 43 44 43 4 0 23 -21 43 -47z m-533 -7 c59 -15 150 -54 182 -80 16 -13 17
-18 6 -31 -16 -20 -26 -19 -59 4 -14 11 -71 31 -126 46 -89 24 -111 27 -200
22 -132 -8 -212 -33 -292 -94 -27 -19 -37 -22 -53 -13 -11 6 -20 15 -20 19 0
27 168 119 239 131 76 13 262 10 323 -4z m-914 -75 c11 -7 9 -18 -11 -57 -71
-142 -111 -344 -111 -564 0 -214 31 -335 138 -555 47 -98 58 -135 37 -135 -18
0 -114 184 -169 325 -92 237 -67 676 54 943 23 51 36 60 62 43z m862 3 l32 -7
-7 -57 c-4 -39 -1 -76 10 -119 l16 -63 -48 -55 c-26 -30 -56 -66 -66 -79 -10
-13 -23 -24 -27 -24 -5 0 -51 42 -102 93 -83 84 -209 188 -241 200 -27 10 95
86 167 103 55 13 214 18 266 8z m88 -23 c8 -5 14 -33 16 -73 2 -54 7 -72 30
-102 40 -53 71 -70 126 -69 44 1 49 -2 55 -25 9 -37 -6 -45 -67 -38 -112 15
-172 71 -190 177 -11 61 -5 139 10 139 4 0 13 -4 20 -9z m-801 -55 c87 -45 88
-46 65 -92 -55 -109 -56 -296 -3 -470 31 -104 110 -286 137 -315 14 -15 14
-25 0 -93 -9 -41 -16 -116 -16 -165 0 -79 -2 -92 -19 -101 -35 -18 -48 -11
-60 33 -14 45 -91 187 -103 187 -4 0 -17 -27 -29 -60 -12 -33 -25 -62 -29 -65
-10 -6 -115 211 -133 275 -24 84 -40 291 -33 410 9 133 47 307 92 415 40 94
32 92 131 41z m1077 -83 c27 -53 29 -69 34 -194 5 -162 -4 -216 -60 -324 -47
-94 -147 -231 -158 -219 -24 26 -19 51 23 107 63 84 108 162 129 221 28 83 20
292 -16 397 -11 31 -12 47 -4 56 17 21 22 16 52 -44z m-924 -3 c17 -9 17 -12
-7 -71 -21 -52 -25 -76 -24 -168 2 -219 79 -419 230 -594 48 -56 98 -111 110
-121 28 -25 27 -40 -5 -57 -26 -13 -28 -12 -71 36 -151 168 -226 291 -276 451
-39 124 -50 191 -51 309 0 92 3 119 23 168 23 58 35 66 71 47z m152 -116 c55
-48 110 -96 123 -108 24 -22 95 -113 95 -121 0 -3 -21 -33 -47 -67 -125 -161
-155 -203 -174 -239 -11 -22 -22 -39 -24 -39 -9 0 -55 112 -85 205 -41 128
-54 205 -47 288 5 65 37 167 52 167 4 0 51 -39 107 -86z m498 -29 c0 -6 -24
-38 -53 -71 -29 -32 -75 -86 -102 -119 -27 -33 -58 -69 -68 -80 -54 -58 -166
-219 -197 -282 -19 -39 -38 -72 -41 -72 -4 -1 -14 11 -24 25 -16 25 -15 27 17
79 39 64 157 229 190 266 13 15 43 51 68 80 147 174 182 210 196 198 8 -6 14
-17 14 -24z m84 -40 c27 -8 71 -15 98 -15 l48 0 0 -77 c0 -43 -5 -96 -11 -118
-14 -51 -79 -161 -127 -214 l-38 -42 -24 53 c-13 29 -51 95 -83 146 -32 51
-60 99 -63 107 -3 8 22 43 63 85 37 40 70 76 71 81 5 12 8 11 66 -6z m-171
-281 c60 -97 149 -282 178 -366 20 -59 20 -63 3 -75 -27 -20 -36 -12 -51 43
-34 118 -121 308 -187 405 -27 41 -33 56 -24 66 18 22 30 11 81 -73z m-85 -1
c45 -66 142 -251 142 -273 0 -20 -117 -134 -194 -190 l-58 -42 -46 53 c-26 30
-59 67 -74 82 -16 16 -28 33 -28 38 0 48 200 359 231 359 4 0 16 -12 27 -27z
m172 -370 c0 -47 -211 -215 -397 -315 -61 -33 -77 -38 -84 -27 -19 30 -10 55
29 73 123 59 327 202 406 285 31 33 46 28 46 -16z m-518 -102 c-9 -47 -9 -186
0 -232 6 -32 3 -38 -18 -48 -22 -10 -26 -8 -35 16 -17 46 -23 187 -10 255 21
107 20 107 46 73 19 -22 22 -35 17 -64z m808 61 c0 -9 -17 -28 -38 -41 -52
-35 -401 -211 -417 -211 -7 0 -15 7 -19 15 -4 11 21 29 97 67 195 99 212 108
287 151 77 45 90 48 90 19z m349 -42 c201 -56 317 -177 226 -236 -31 -20 -52
-9 -130 70 -64 64 -150 116 -225 136 -42 11 -59 24 -60 43 0 14 117 7 189 -13z
m-305 -14 c15 -24 15 -26 -13 -42 -41 -24 -81 -91 -81 -134 1 -49 33 -116 78
-158 l37 -35 -35 7 c-133 27 -350 33 -402 11 -14 -6 -22 4 -43 50 -14 32 -25
64 -25 71 0 7 21 23 47 35 102 46 220 107 263 134 56 36 143 85 151 85 4 0 14
-11 23 -24z m247 -61 c42 -22 118 -77 119 -87 0 -5 -11 -8 -24 -8 -12 0 -37
-5 -54 -11 -26 -9 -35 -8 -48 5 -32 33 -76 48 -122 43 -78 -9 -115 -75 -68
-121 27 -28 83 -35 104 -14 27 27 2 88 -30 75 -8 -4 -7 -6 5 -6 25 -1 24 -58
-2 -66 -25 -8 -69 14 -77 38 -10 32 27 71 71 75 68 6 125 -33 125 -86 0 -41
-36 -96 -74 -115 -84 -39 -175 -9 -220 73 -76 140 27 253 210 229 28 -4 66
-15 85 -24z m-1350 -77 c27 -53 50 -135 42 -154 -4 -10 8 -6 32 10 48 33 81
34 89 4 4 -17 -1 -28 -17 -40 -25 -19 -18 -34 10 -20 10 5 61 24 113 42 52 18
113 41 134 52 39 20 40 20 53 2 12 -17 11 -21 -6 -36 -18 -14 -108 -55 -195
-88 -34 -13 -33 -27 4 -35 30 -7 80 -56 80 -80 0 -25 20 -27 50 -5 44 31 138
72 150 65 24 -15 5 -36 -72 -75 -45 -23 -101 -55 -126 -72 l-44 -30 -24 23
c-23 21 -23 24 -8 47 16 25 16 25 -12 18 -50 -11 -382 -186 -569 -300 -71 -43
-117 -65 -130 -62 -11 3 -31 7 -45 11 -33 7 -90 -27 -90 -55 0 -21 -8 -24 -34
-14 -10 4 -16 18 -16 38 0 18 -5 37 -12 44 -15 15 -45 16 -53 1 -4 -6 -1 -10
6 -8 29 3 39 -2 39 -22 0 -17 -5 -20 -37 -17 -36 3 -38 5 -41 40 -3 33 0 39
30 54 36 20 126 24 238 12 l65 -7 -63 20 c-88 28 -72 43 37 35 87 -7 99 6 19
19 -64 11 -42 25 37 25 79 0 101 15 38 25 -61 10 -63 12 -63 53 0 57 25 118
72 180 47 61 140 132 173 132 18 0 27 11 43 53 34 88 67 157 74 157 4 0 17
-19 29 -42z m590 -120 c47 -93 69 -159 76 -224 l6 -62 -31 -7 c-18 -3 -36 -4
-40 -1 -5 3 -12 29 -16 58 -10 74 -42 163 -82 229 -19 31 -34 61 -34 65 0 5
12 17 28 26 26 17 28 17 46 -5 10 -12 31 -47 47 -79z m977 -20 c83 -128 123
-259 129 -428 6 -155 -5 -220 -58 -330 -33 -70 -42 -82 -50 -67 -8 13 -4 34
15 80 42 108 50 148 49 262 -2 184 -40 303 -145 458 -22 33 -38 60 -36 60 2 1
12 7 23 14 11 6 23 12 26 12 4 1 25 -27 47 -61z m-60 -64 c112 -186 141 -295
124 -476 -14 -148 -31 -188 -32 -73 -1 157 -87 327 -211 414 -30 22 -67 43
-82 46 -40 10 -41 22 -4 29 43 8 109 65 132 111 9 20 19 35 21 33 2 -3 25 -40
52 -84z m-979 -39 c1 -5 -37 -29 -84 -52 -47 -23 -85 -38 -85 -32 0 5 -16 26
-35 47 l-34 39 97 46 97 47 22 -42 c12 -24 22 -47 22 -53z m533 6 c29 -9 35
-15 31 -31 -4 -13 -11 -19 -22 -16 -84 24 -294 32 -371 14 -9 -2 -16 6 -18 19
-3 18 3 22 30 26 56 8 311 -1 350 -12z m254 -81 c122 -60 206 -165 246 -309
29 -104 19 -290 -15 -278 -9 3 -11 34 -9 108 5 163 -35 261 -152 371 -34 32
-160 98 -188 98 -19 0 -22 8 -12 35 9 22 49 14 130 -25z m-396 8 c0 -6 -24
-35 -53 -63 -75 -73 -177 -110 -302 -109 -66 0 -99 5 -124 19 -33 17 -34 18
-15 32 11 8 28 11 39 8 11 -4 61 -9 110 -12 117 -6 184 17 253 87 45 46 92 66
92 38z m106 -9 c32 -7 66 -17 74 -24 8 -7 36 -15 61 -17 57 -6 155 -63 219
-128 54 -53 106 -140 115 -194 l8 -38 -34 7 c-149 31 -227 71 -350 179 -48 42
-99 80 -114 86 -61 23 -145 -17 -145 -70 0 -64 82 -110 134 -76 24 15 25 14
55 -33 43 -66 132 -149 232 -215 46 -30 102 -70 123 -89 l40 -34 -23 -31 c-12
-18 -27 -32 -32 -32 -6 0 -63 53 -127 118 -152 154 -221 190 -353 183 -40 -2
-79 -44 -79 -84 0 -40 22 -64 75 -78 43 -12 85 8 85 41 0 25 16 25 59 -1 40
-24 30 -14 155 -157 61 -71 95 -117 89 -123 -6 -6 -32 2 -69 21 -47 25 -74 32
-126 33 l-66 2 -176 154 c-97 85 -176 160 -176 166 0 6 4 36 9 66 5 30 12 83
16 120 l6 65 63 27 c63 28 133 88 164 139 19 32 12 31 88 17z m-781 -146 c70
-63 197 -167 258 -211 36 -27 57 -50 57 -62 0 -31 -20 -24 -81 28 -60 50 -270
221 -304 246 -17 14 -18 17 -5 26 23 15 30 13 75 -27z m-32 -56 c40 -34 121
-100 181 -147 60 -47 120 -94 132 -105 l23 -20 -23 -67 c-30 -87 -63 -153 -93
-188 l-24 -29 -81 67 c-238 196 -458 394 -458 411 0 4 36 25 81 46 45 22 100
52 123 67 22 16 47 28 54 28 7 0 45 -28 85 -63z m204 33 c23 -11 66 -23 97
-26 52 -6 56 -9 56 -33 0 -14 3 -42 5 -61 11 -69 -5 -68 -101 5 -130 100 -136
106 -123 122 15 17 18 17 66 -7z m668 -55 c70 -69 96 -88 191 -138 19 -9 34
-20 34 -23 0 -16 -45 -84 -56 -84 -25 0 -126 97 -192 185 -50 65 -75 91 -93
92 l-24 3 23 -10 c27 -11 27 -47 0 -64 -13 -8 -24 -6 -45 10 -57 42 -29 104
47 104 36 0 47 -7 115 -75z m-409 -47 c-18 -209 -74 -378 -167 -504 -47 -63
-85 -94 -164 -131 -113 -52 -271 -32 -318 41 -10 14 -17 37 -17 50 0 30 35 66
65 66 32 0 67 -37 63 -68 -2 -23 -8 -27 -33 -27 -22 0 -30 4 -29 18 2 18 -11
23 -20 8 -10 -16 5 -41 35 -56 54 -28 190 -11 254 32 56 37 128 122 159 188
61 127 76 178 93 317 18 142 18 144 67 147 17 1 18 -5 12 -81z m-683 -153
c159 -143 171 -153 267 -229 117 -92 141 -117 129 -132 -9 -11 -28 0 -92 48
-45 34 -105 82 -133 107 -27 25 -92 82 -144 126 -158 134 -212 188 -198 197 7
4 18 7 25 5 6 -1 72 -56 146 -122z m1490 -1 c11 -4 17 -15 17 -35 0 -28 -2
-29 -45 -29 -25 0 -45 -3 -45 -7 0 -4 30 -37 68 -73 64 -64 133 -162 136 -196
0 -9 -9 -20 -21 -25 -21 -7 -26 -3 -49 43 -26 50 -131 165 -188 205 l-30 20
32 48 c18 27 32 53 32 58 0 8 48 4 93 -9z m-419 -36 c44 -23 93 -64 179 -151
64 -66 117 -126 117 -133 0 -23 -41 -28 -59 -8 -10 11 -59 64 -109 120 -66 72
-107 108 -146 128 -62 31 -130 44 -140 27 -5 -7 2 -11 16 -11 33 0 51 -14 46
-36 -7 -37 -86 -30 -107 9 -10 19 -10 29 -1 46 27 51 116 55 204 9z m-1123
-27 l23 -18 -21 -22 c-31 -33 -72 -122 -76 -163 -5 -49 -9 -53 -46 -33 -29 14
-43 45 -22 45 23 0 43 34 37 64 -5 25 1 44 30 89 19 31 39 57 44 57 4 0 18 -8
31 -19z m822 -78 c192 -163 377 -346 377 -373 0 -27 -37 0 -136 101 -100 102
-226 214 -315 282 -27 20 -35 33 -32 47 3 11 7 20 10 20 3 0 46 -35 96 -77z
m-31 -45 c125 -107 277 -249 320 -301 l42 -49 -25 -19 c-13 -10 -70 -41 -127
-70 l-102 -51 -83 69 c-63 53 -234 187 -255 199 -2 1 15 29 37 61 36 53 87
154 105 206 3 9 8 17 10 17 3 0 38 -28 78 -62z m990 35 c26 -46 40 -111 32
-160 -8 -56 -58 -116 -111 -134 -35 -11 -137 -9 -150 4 -15 16 30 45 78 50 97
12 135 68 109 162 -10 36 -10 51 0 75 15 37 21 37 42 3z m-505 -239 c65 -31
178 -150 216 -227 31 -63 33 -80 13 -96 -12 -10 -22 2 -57 66 -71 128 -156
206 -255 232 -26 7 -48 21 -59 38 l-17 26 53 -7 c30 -4 77 -18 106 -32z m325
-93 c11 -10 -11 -94 -36 -135 l-23 -38 -42 72 -43 72 22 23 c20 21 29 23 69
18 25 -3 49 -8 53 -12z m88 -10 c0 -10 -9 -48 -20 -83 -32 -104 -166 -274
-200 -253 -19 11 -10 31 33 78 49 52 97 136 122 214 15 46 25 57 58 62 4 0 7
-8 7 -18z m-376 -9 c2 -4 2 -13 -2 -18 -9 -14 -109 -78 -207 -131 -44 -24 -69
-41 -55 -38 22 6 150 76 252 137 43 26 62 18 27 -12 -29 -25 -199 -122 -254
-145 -63 -27 -189 -63 -231 -67 -33 -2 -39 0 -42 17 -2 18 7 24 55 38 86 26
247 106 343 170 83 56 104 65 114 49z m-783 -152 c50 -50 114 -90 144 -90 9 0
15 -9 15 -25 0 -29 -11 -31 -70 -10 -39 14 -42 14 -35 -3 27 -61 8 -102 -45
-102 -43 0 -64 37 -56 96 6 46 6 46 -17 32 -69 -45 -118 -69 -172 -82 -76 -20
-98 -20 -125 2 -19 16 -21 22 -11 40 12 23 45 30 56 12 4 -6 1 -17 -5 -25 -10
-12 -9 -15 3 -15 22 0 210 114 215 130 3 7 -15 0 -39 -14 -24 -15 -63 -36 -87
-47 -39 -18 -44 -19 -64 -5 -28 20 -45 20 -82 1 -38 -20 -41 -19 -71 12 -39
43 -33 51 28 40 72 -13 179 11 272 62 39 21 76 39 83 40 7 0 35 -22 63 -49z
m816 -43 c58 -86 124 -213 172 -334 42 -104 47 -123 32 -123 -12 0 -27 21 -36
50 -23 81 -98 231 -167 333 -43 65 -76 122 -73 128 13 20 32 6 72 -54z m-584
-27 c8 -66 36 -128 76 -166 30 -29 128 -74 163 -74 18 0 38 -20 38 -38 0 -26
-97 -6 -180 35 -72 36 -76 41 -108 104 -34 70 -49 148 -38 194 7 26 8 26 25
11 11 -10 21 -37 24 -66z m565 -47 c67 -102 172 -315 172 -352 0 -15 -8 -16
-62 -11 -35 4 -98 1 -142 -5 l-78 -11 -34 70 c-36 75 -116 206 -165 267 -32
41 -35 49 -16 49 14 0 178 68 212 88 11 6 25 12 30 12 6 0 43 -48 83 -107z
m272 -97 c33 -70 116 -168 161 -191 39 -21 76 -19 89 4 7 13 7 22 0 26 -5 3
-10 1 -10 -4 0 -17 -36 -13 -51 5 -29 36 62 62 94 27 51 -57 18 -123 -60 -123
-80 0 -150 53 -225 171 -43 68 -62 114 -54 134 10 28 25 15 56 -49z m-1321
-92 c59 -25 150 -125 214 -235 26 -46 77 -204 77 -240 0 -31 -39 -24 -45 9
-11 49 -57 176 -81 222 -30 60 -104 151 -148 185 -28 21 -51 28 -99 32 -80 7
-130 -14 -147 -60 -19 -51 -26 -62 -45 -66 -16 -3 -17 2 -11 39 11 69 45 105
126 131 32 11 114 2 159 -17z m334 -90 c103 -16 236 -58 317 -99 62 -31 155
-102 213 -160 57 -58 66 -97 10 -44 -62 59 -184 149 -237 176 -130 66 -271
103 -390 103 -67 0 -96 10 -96 32 0 13 74 9 183 -8z m-309 -10 c28 -11 17 -22
-26 -29 -161 -27 -336 -164 -389 -305 -53 -140 -49 -265 15 -392 25 -51 33
-75 25 -83 -31 -30 -118 194 -119 304 0 63 27 167 62 232 64 123 156 198 303
250 83 30 103 33 129 23z m331 -39 c200 -38 341 -113 484 -258 l74 -75 -17
-69 c-20 -81 -36 -123 -46 -123 -4 0 -15 11 -24 25 -33 50 -153 158 -218 196
-71 42 -164 76 -232 85 -82 11 -83 11 -106 69 -12 30 -35 75 -51 100 -16 25
-29 50 -29 55 0 15 74 12 165 -5z m-262 -42 c43 -59 90 -151 82 -162 -2 -5
-25 -12 -51 -16 -74 -11 -169 -59 -224 -114 -59 -59 -86 -135 -76 -212 5 -37
3 -50 -9 -56 -8 -5 -44 -37 -80 -72 -36 -35 -67 -62 -69 -60 -12 14 -46 92
-60 138 -30 101 -14 226 41 335 31 61 121 152 189 191 50 28 175 74 206 75 9
0 32 -21 51 -47z m1074 -22 c61 -6 99 -16 155 -43 116 -56 218 -161 218 -227
0 -11 5 -23 10 -26 6 -3 10 -2 10 3 0 18 42 52 65 52 32 0 32 -18 0 -26 -31
-8 -40 -35 -24 -77 15 -44 7 -73 -36 -133 -61 -84 -70 -108 -56 -143 7 -16 20
-32 29 -34 10 -3 3 -5 -14 -6 -17 0 -37 6 -44 14 -13 15 -12 23 6 200 l7 59
-32 -27 c-35 -29 -46 -33 -56 -17 -3 5 10 20 30 31 44 26 55 46 55 99 0 139
-182 260 -389 260 -69 0 -186 -24 -216 -44 -21 -14 -24 -13 -40 4 -16 17 -15
19 10 36 36 23 141 53 190 53 22 0 77 -4 122 -8z m40 -78 c39 -5 44 -9 53 -42
5 -20 10 -75 10 -122 0 -96 -30 -218 -79 -324 -50 -108 -232 -315 -316 -361
l-35 -18 -45 44 c-25 25 -57 61 -70 81 l-25 36 98 99 c168 170 217 312 192
559 l-5 50 35 7 c34 6 101 3 187 -9z m-230 -139 c6 -107 -6 -169 -52 -269 -50
-110 -186 -264 -232 -265 -22 0 -13 14 32 50 59 47 125 131 164 207 47 94 64
179 59 300 -3 57 -2 105 1 108 11 12 23 -44 28 -131z m337 85 c21 -106 -12
-313 -70 -435 -18 -38 -55 -101 -83 -138 -112 -154 -301 -315 -301 -257 0 4
17 20 37 34 58 42 180 165 234 238 55 75 111 191 133 276 20 80 29 209 18 266
-8 42 -7 47 8 47 12 0 20 -11 24 -31z m-1120 -44 c6 -17 0 -20 -58 -30 -55 -9
-136 -47 -173 -81 -39 -36 -72 -107 -73 -154 0 -33 -14 -60 -31 -60 -16 0 -20
63 -8 113 9 40 23 63 64 103 59 59 96 81 180 105 76 22 91 23 99 4z m271 -20
c129 -48 186 -83 272 -166 75 -73 109 -125 93 -144 -10 -12 -17 -7 -47 33 -55
73 -92 110 -161 158 -91 63 -136 85 -231 108 -47 12 -86 27 -89 35 -6 19 84 6
163 -24z m-255 -51 c13 -34 13 -54 -2 -54 -7 0 -53 -18 -103 -40 l-90 -41 -17
22 c-10 12 -18 27 -18 35 0 28 146 103 203 104 10 0 22 -11 27 -26z m250 -20
c36 -14 75 -33 88 -42 22 -17 22 -18 5 -60 -10 -23 -21 -42 -26 -42 -4 0 -23
17 -42 38 -30 34 -58 50 -142 83 -16 6 -23 17 -23 35 0 25 2 26 38 20 20 -4
66 -18 102 -32z m-65 -68 c28 -13 65 -39 83 -59 29 -30 32 -38 23 -56 -16 -29
-22 -26 -53 19 -68 98 -190 107 -337 24 -36 -20 -47 -22 -57 -12 -11 11 -7 17
21 37 101 69 233 88 320 47z m221 -21 c11 -26 -44 -123 -103 -184 -62 -63
-124 -91 -205 -91 -31 0 -38 3 -38 20 0 17 7 20 38 20 91 0 199 83 262 204 26
48 37 56 46 31z m-316 -32 c0 -44 -46 -198 -75 -250 -32 -57 -57 -75 -78 -54
-8 8 -5 17 10 33 36 40 62 104 80 197 16 82 20 91 41 91 14 0 22 -6 22 -17z
m76 -12 c18 -11 44 -36 59 -55 l28 -37 -32 -28 c-30 -27 -89 -51 -126 -51 -13
0 -16 5 -11 23 3 12 14 55 23 95 9 39 20 72 23 72 3 0 19 -9 36 -19z m389
-122 c19 -37 24 -53 16 -67 -14 -26 -98 -102 -113 -102 -7 0 -19 12 -25 28 -7
15 -24 54 -38 86 -29 66 -28 69 20 147 l27 41 43 -42 c24 -23 55 -64 70 -91z
m-795 51 c12 -9 8 -16 -25 -43 -108 -87 -220 -194 -246 -236 -22 -35 -29 -58
-29 -97 0 -44 4 -54 36 -85 32 -31 40 -34 97 -34 48 0 62 -4 62 -15 0 -39
-130 -35 -192 6 -54 35 -75 145 -40 211 33 63 118 152 214 227 54 42 100 76
103 76 3 0 12 -5 20 -10z m619 -135 c37 -98 74 -176 109 -230 36 -53 130 -147
200 -197 40 -30 55 -58 31 -58 -35 0 -204 146 -266 230 -40 53 -90 148 -116
219 -26 70 -27 75 -11 93 21 23 25 19 53 -57z m-55 -60 c16 -42 26 -79 22 -83
-13 -13 -224 -8 -237 6 -7 6 -29 12 -48 12 -58 0 -67 12 -41 51 22 33 25 34
89 34 51 0 77 6 116 26 28 14 55 27 60 28 6 0 23 -33 39 -74z m-587 -1 c86
-62 140 -91 221 -120 53 -18 53 -19 47 -54 -9 -47 -12 -50 -47 -50 -44 0 -96
-42 -104 -85 -3 -19 -9 -35 -13 -35 -19 1 -311 247 -311 263 0 9 118 137 127
137 1 0 37 -25 80 -56z m1260 -224 c-15 -267 -105 -483 -285 -687 -30 -35 -59
-63 -64 -63 -18 0 -6 27 28 60 54 52 147 198 192 303 62 141 83 232 89 382 2
72 10 141 16 154 11 23 12 23 20 -10 5 -19 7 -81 4 -139z m-57 -78 c-11 -97
-56 -255 -97 -335 -19 -38 -28 -47 -41 -41 -9 4 -27 8 -40 8 -16 1 -20 5 -16
16 47 111 67 192 71 300 l5 115 56 58 57 58 8 -43 c4 -24 3 -85 -3 -136z
m-477 69 c37 -44 63 -82 58 -86 -12 -7 -197 -35 -231 -35 -17 0 -33 12 -50 35
-14 19 -42 47 -63 62 -79 58 -80 59 -74 77 6 15 15 16 59 11 29 -3 82 -1 118
3 117 17 109 20 183 -67z m-280 -51 c52 -48 102 -133 93 -156 -3 -8 -16 -14
-30 -14 -20 0 -31 12 -58 63 -18 34 -52 81 -76 104 -38 37 -42 45 -32 63 13
25 13 25 103 -60z m-156 38 c38 -17 66 -39 98 -77 l27 -31 -53 4 c-42 3 -54 8
-60 25 -9 22 -49 37 -74 27 -19 -7 -19 -42 0 -50 8 -3 15 -1 15 4 0 6 -4 10
-10 10 -5 0 -10 7 -10 15 0 20 44 20 60 0 19 -23 4 -64 -26 -71 -33 -9 -95 2
-106 18 -54 84 40 169 139 126z m779 -117 c-10 -131 -46 -249 -107 -348 -27
-43 -48 -30 -25 15 35 67 77 219 88 315 11 102 21 132 40 121 7 -5 8 -41 4
-103z m476 3 c12 -25 10 -29 -25 -59 -21 -19 -62 -39 -95 -49 -62 -17 -182
-33 -182 -23 0 24 16 37 44 37 88 0 226 44 226 72 0 9 -3 9 -12 0 -17 -17 -37
-15 -44 3 -9 23 15 45 47 45 22 0 32 -7 41 -26z m-622 -51 c58 -36 60 -40 57
-73 -4 -27 -61 -191 -73 -208 -1 -2 -28 17 -59 42 -88 72 -174 108 -286 121
-44 5 -58 10 -62 25 -4 15 2 20 25 25 17 4 33 16 38 29 6 18 17 23 56 25 54 2
166 24 204 40 36 14 33 15 100 -26z m-700 -81 c58 -61 89 -104 134 -192 46
-89 56 -114 45 -121 -21 -13 -23 -12 -43 39 -27 65 -127 220 -171 262 -20 19
-46 47 -57 63 -18 25 -18 27 -1 27 10 0 52 -35 93 -78z m176 43 c25 -60 55
-204 57 -271 3 -97 -12 -97 -61 -1 -50 99 -113 197 -147 229 -14 13 -25 26
-25 29 0 4 22 9 48 13 27 3 57 13 68 21 30 23 44 18 60 -20z m221 -111 c95
-22 178 -68 248 -139 71 -71 94 -110 77 -127 -9 -9 -16 -7 -29 12 -32 48 -120
127 -183 164 -45 26 -84 41 -136 49 -67 10 -74 14 -74 34 0 27 8 28 97 7z
m-367 -77 c0 -7 -18 -30 -40 -51 -22 -22 -44 -54 -49 -72 -11 -40 1 -98 26
-126 21 -24 83 -52 136 -62 29 -5 37 -12 37 -28 0 -19 -4 -20 -47 -14 -111 15
-203 98 -203 183 0 59 22 103 76 153 42 38 64 44 64 17z m436 -16 c86 -41 154
-94 154 -118 0 -8 -16 -31 -35 -50 -30 -30 -37 -33 -57 -22 -30 16 -156 49
-189 49 l-26 0 -2 90 -1 90 38 0 c24 0 68 -15 118 -39z m-404 -33 c7 -13 25
-47 38 -77 l25 -54 -25 -16 c-14 -9 -38 -29 -54 -45 l-29 -30 -28 34 c-47 56
-42 120 13 177 38 39 41 40 60 11z m566 -154 c-44 -40 -34 -46 12 -8 35 30 53
25 24 -7 -57 -64 -254 -138 -366 -139 -31 0 -35 3 -31 20 4 14 17 21 52 25
123 16 269 83 308 141 12 18 19 22 27 14 8 -8 1 -21 -26 -46z m-165 1 c31 -10
57 -22 57 -26 0 -11 -57 -28 -66 -20 -16 14 -106 35 -153 35 -73 1 -157 -23
-186 -54 -25 -26 -65 -31 -65 -9 0 16 78 73 116 86 55 17 225 11 297 -12z
m-209 -82 c-10 -73 -41 -145 -80 -191 -40 -48 -49 -50 -65 -21 -9 17 -7 25 9
42 37 41 56 90 55 145 0 40 3 52 15 52 12 0 14 -12 9 -66 -6 -82 8 -72 25 19
8 43 17 67 26 67 10 0 12 -11 6 -47z m398 -40 c20 -21 47 -64 59 -96 12 -31
24 -56 26 -53 2 2 7 41 11 87 4 47 12 84 18 86 19 6 28 -107 14 -171 -11 -55
-12 -56 -46 -56 -24 0 -36 5 -40 18 -14 50 -70 145 -100 171 -30 27 -32 31
-16 40 27 16 36 13 74 -26z m-102 -3 c8 -5 12 -10 10 -12 -3 -2 -36 -31 -75
-64 -87 -75 -164 -132 -232 -170 l-53 -29 -31 32 -32 32 32 27 c18 15 46 51
63 81 24 43 35 53 56 53 36 0 147 24 197 43 51 19 47 18 65 7z m-500 -38 c9
-4 16 -23 17 -50 2 -53 32 -114 80 -163 33 -35 34 -37 14 -44 -53 -17 -135 82
-155 188 -12 63 3 87 44 69z m540 3 c0 -3 -30 -35 -67 -72 -70 -68 -65 -67 25
7 28 24 55 40 59 36 4 -4 3 -10 -3 -14 -6 -4 -51 -40 -100 -81 -197 -163 -337
-331 -378 -451 -55 -164 -45 -482 19 -598 45 -83 128 -129 189 -106 22 8 20
24 -2 24 -26 0 -42 20 -42 52 0 50 53 82 105 62 38 -15 59 -110 34 -156 -6
-12 -23 -31 -38 -44 -86 -76 -209 -46 -295 73 -58 80 -78 173 -109 492 -11
110 -11 134 0 138 22 9 14 23 -13 23 -23 0 -25 3 -22 33 2 27 8 33 31 35 35 4
25 22 -13 22 -27 0 -29 2 -27 42 2 42 2 42 57 60 l55 19 -58 -6 -58 -5 3 27
c2 22 10 29 43 39 134 38 322 139 438 233 129 106 150 121 158 121 5 0 9 -2 9
-5z m60 -97 c29 -63 26 -72 -31 -98 -49 -23 -129 -98 -129 -121 0 -11 -68 -7
-128 8 -23 6 -23 6 10 40 34 36 245 213 254 213 3 0 14 -19 24 -42z m-782 -59
c46 -24 67 -30 107 -27 40 2 50 0 53 -14 4 -23 -32 -31 -113 -26 l-64 4 6 -26
c9 -49 -61 -70 -81 -24 -9 20 -11 20 -60 -17 -56 -43 -122 -69 -172 -69 -36 0
-57 20 -48 44 8 20 44 21 44 1 0 -19 13 -19 58 2 42 19 135 83 129 89 -2 3
-31 -12 -63 -32 -53 -31 -64 -35 -106 -29 -30 3 -55 1 -67 -7 -25 -15 -63 1
-87 37 -22 33 -14 40 32 25 70 -24 157 -8 264 48 52 27 98 50 103 51 4 0 33
-13 65 -30z m974 -65 c49 -35 57 -50 28 -59 -16 -5 -29 0 -50 20 -60 57 -168
43 -243 -32 -34 -34 -50 -44 -58 -36 -16 16 56 91 116 120 70 33 148 28 207
-13z m396 -32 c36 -24 44 -47 24 -71 -34 -42 -123 -32 -107 11 10 27 46 34 62
12 12 -16 13 -16 13 -1 0 9 -14 24 -32 33 -41 21 -97 15 -208 -24 -92 -32
-269 -76 -277 -69 -7 8 28 37 45 37 10 0 76 19 147 41 181 58 278 67 333 31z
m-498 -2 c0 -20 -59 -127 -132 -237 -109 -163 -157 -332 -100 -351 6 -2 12 4
12 13 0 25 74 17 79 -9 9 -48 -92 -64 -134 -22 -30 30 -48 95 -40 144 25 152
40 219 52 229 8 6 32 15 54 18 35 6 56 25 27 25 -14 0 -48 30 -48 43 0 6 21 7
54 3 50 -5 56 -4 74 19 11 13 30 49 42 80 16 39 28 55 41 55 11 0 19 -5 19
-10z m160 -115 c-28 -74 -79 -146 -157 -223 -25 -24 -43 -51 -41 -60 4 -22 35
-27 64 -11 30 16 46 2 20 -17 -51 -37 -136 3 -136 64 0 34 28 132 42 150 6 6
20 12 31 12 36 0 101 39 126 75 29 42 66 50 51 10z"/>
<path d="M995 4935 c-81 -37 -185 -183 -185 -260 0 -33 19 -33 118 1 92 31
183 78 223 115 38 36 39 85 3 128 -23 27 -32 31 -77 31 -29 -1 -65 -7 -82 -15z
m125 -15 c27 -14 44 -73 29 -98 -24 -38 -138 -98 -252 -133 l-59 -18 7 37 c13
72 89 170 160 206 34 18 88 21 115 6z"/>
</g>
</svg>
